<svg width="40" height="10" viewBox="0 0 40 10" fill="none" xmlns="http://www.w3.org/2000/svg" xmlns:xlink="http://www.w3.org/1999/xlink">
<path d="M10.4,4C10.4,5.273 9.894,6.494 8.994,7.394C8.094,8.294 6.873,8.8 5.6,8.8C4.327,8.8 3.106,8.294 2.206,7.394C1.306,6.494 0.8,5.273 0.8,4C0.8,2.727 1.306,1.506 2.206,0.606C3.106,-0.294 4.327,-0.8 5.6,-0.8C6.873,-0.8 8.094,-0.294 8.994,0.606C9.894,1.506 10.4,2.727 10.4,4ZM24.8,4C24.8,5.273 24.294,6.494 23.394,7.394C22.494,8.294 21.273,8.8 20,8.8C18.727,8.8 17.506,8.294 16.606,7.394C15.706,6.494 15.2,5.273 15.2,4C15.2,2.727 15.706,1.506 16.606,0.606C17.506,-0.294 18.727,-0.8 20,-0.8C21.273,-0.8 22.494,-0.294 23.394,0.606C24.294,1.506 24.8,2.727 24.8,4L24.8,4ZM34.4,8.8C35.673,8.8 36.894,8.294 37.794,7.394C38.694,6.494 39.2,5.273 39.2,4C39.2,2.727 38.694,1.506 37.794,0.606C36.894,-0.294 35.673,-0.8 34.4,-0.8C33.127,-0.8 31.906,-0.294 31.006,0.606C30.106,1.506 29.6,2.727 29.6,4C29.6,5.273 30.106,6.494 31.006,7.394C31.906,8.294 33.127,8.8 34.4,8.8Z" fill="#FFFFFF"/>
</svg>
