<svg width="44" height="44" viewBox="0 0 44 44" fill="none" xmlns="http://www.w3.org/2000/svg" xmlns:xlink="http://www.w3.org/1999/xlink">
<path d="M39.919,42.747C40.7,43.529 41.967,43.529 42.748,42.747C43.529,41.966 43.529,40.7 42.748,39.919L39.919,42.747ZM32.748,29.919C31.967,29.138 30.7,29.138 29.919,29.919C29.138,30.7 29.138,31.966 29.919,32.747L32.748,29.919ZM42.748,39.919L32.748,29.919L29.919,32.747L39.919,42.747L42.748,39.919ZM29.919,32.747L39.919,42.747L42.748,39.919L32.748,29.919L29.919,32.747ZM4.667,19.333C4.667,11.233 11.233,4.667 19.334,4.667L19.334,0.667C9.024,0.667 0.667,9.024 0.667,19.333L4.667,19.333ZM19.334,4.667C27.434,4.667 34,11.233 34,19.333L38,19.333C38,9.024 29.643,0.667 19.334,0.667L19.334,4.667ZM34,19.333C34,27.433 27.434,34 19.334,34L19.334,38C29.643,38 38,29.643 38,19.333L34,19.333ZM19.334,34C11.233,34 4.667,27.433 4.667,19.333L0.667,19.333C0.667,29.643 9.024,38 19.334,38L19.334,34Z" fill="#FFFFFF"/>
</svg>
