<svg width="50" height="34" viewBox="0 0 50 34" fill="none" xmlns="http://www.w3.org/2000/svg" xmlns:xlink="http://www.w3.org/1999/xlink">
<path d="M5.375,0.779C4.893,0.457 4.333,0.273 3.754,0.244C3.176,0.216 2.6,0.346 2.09,0.619C1.579,0.892 1.152,1.299 0.854,1.796C0.556,2.293 0.399,2.862 0.399,3.441L0.399,29.041C0.399,29.62 0.556,30.189 0.854,30.686C1.152,31.183 1.579,31.59 2.09,31.863C2.6,32.136 3.176,32.266 3.754,32.238C4.333,32.21 4.893,32.025 5.375,31.703L22.799,20.088L22.799,29.041C22.799,29.62 22.956,30.189 23.254,30.686C23.552,31.183 23.979,31.59 24.49,31.863C25,32.136 25.576,32.266 26.154,32.238C26.733,32.21 27.293,32.025 27.775,31.703L46.975,18.904C47.413,18.611 47.773,18.215 48.021,17.751C48.27,17.287 48.4,16.768 48.4,16.241C48.4,15.714 48.27,15.196 48.021,14.731C47.773,14.267 47.413,13.871 46.975,13.579L27.775,0.779C27.293,0.457 26.733,0.273 26.154,0.244C25.576,0.216 25,0.346 24.49,0.619C23.979,0.892 23.552,1.299 23.254,1.796C22.956,2.293 22.799,2.862 22.799,3.441L22.799,12.395L5.375,0.779Z" transform="rotate(360 24.4 16.241)" fill="#FFFFFF"/>
</svg>
