<svg width="48" height="34" viewBox="0 0 48 34" fill="none" xmlns="http://www.w3.org/2000/svg" xmlns:xlink="http://www.w3.org/1999/xlink">
<path d="M4.576,0.779C4.094,0.457 3.534,0.273 2.955,0.244C2.377,0.216 1.801,0.346 1.29,0.619C0.78,0.892 0.353,1.299 0.055,1.796C-0.243,2.293 -0.4,2.862 -0.4,3.441L-0.4,29.041C-0.4,29.62 -0.243,30.189 0.055,30.686C0.353,31.183 0.78,31.59 1.29,31.863C1.801,32.136 2.377,32.266 2.955,32.238C3.534,32.21 4.094,32.025 4.576,31.703L22,20.088L22,29.041C22,29.62 22.157,30.189 22.455,30.686C22.752,31.183 23.18,31.59 23.69,31.863C24.201,32.136 24.777,32.266 25.355,32.238C25.934,32.21 26.494,32.025 26.976,31.703L46.176,18.904C46.614,18.611 46.974,18.215 47.222,17.751C47.471,17.287 47.601,16.768 47.601,16.241C47.601,15.714 47.471,15.196 47.222,14.731C46.974,14.267 46.614,13.871 46.176,13.579L26.976,0.779C26.494,0.457 25.934,0.273 25.355,0.244C24.777,0.216 24.201,0.346 23.69,0.619C23.18,0.892 22.752,1.299 22.455,1.796C22.157,2.293 22,2.862 22,3.441L22,12.395L4.576,0.779Z" fill="#FFFFFF"/>
</svg>
