<svg width="264" height="80" viewBox="0 0 264 80" fill="none" xmlns="http://www.w3.org/2000/svg" xmlns:xlink="http://www.w3.org/1999/xlink">
<path d="M-0.118,40.235C-0.118,61.882 17.765,79.765 39.412,79.765C61.059,79.765 78.941,61.882 78.941,40.235C78.941,18.588 61.059,0.941 39.412,0.941C17.765,0.941 -0.118,18.588 -0.118,40.235ZM54,58.588C44.824,52.941 33.059,51.529 19.412,54.588C16.118,55.059 15.647,50.353 18.471,49.882C33.529,46.353 46.235,48 56.588,54.353C59.177,56 56.588,60 54,58.588ZM58,48C47.412,41.412 31.177,39.529 18.706,43.294C14.706,44.471 13.294,38.353 17.059,37.412C31.412,33.176 49.059,35.294 61.294,42.824C64.588,44.941 61.294,50.118 58,48ZM16.824,31.294C12.824,32.706 10.235,25.882 14.706,24.235C28.588,20 52.118,20.706 66.706,29.412C70.706,31.529 66.941,38.118 62.706,35.765C50,28.235 28.824,27.529 16.824,31.294ZM106,52.706C102,52.706 98.235,51.294 94.941,48C94.706,48 94.706,48.235 94.706,48.235L90.941,52.706C90.706,52.941 90.706,53.176 90.941,53.412C95.177,57.176 100.353,59.059 106,59.059C114,59.059 118.941,54.588 118.941,48C118.941,42.353 115.412,39.294 107.177,37.176C100.353,35.529 99.177,34.353 99.177,32C99.177,29.647 101.529,28.235 104.588,28.235C107.647,28.235 110.471,29.412 113.765,31.765C113.765,31.765 114,32 114.235,32C114.471,32 114.471,31.765 114.471,31.765L117.765,27.059C118,26.824 118,26.824 117.765,26.588C114,23.529 109.529,21.882 104.588,21.882C97.294,21.882 92.118,26.353 92.118,32.706C92.118,39.529 96.824,41.647 104.353,43.529C110.941,44.941 111.882,46.353 111.882,48.706C111.882,51.294 109.529,52.706 106,52.706ZM128.353,34.588L128.353,31.529C128.353,31.294 128.118,31.059 127.882,31.059L121.765,31.059C121.529,31.059 121.294,31.294 121.294,31.529L121.294,66.118C121.294,66.353 121.529,66.588 121.765,66.588L127.882,66.588C128.118,66.588 128.353,66.353 128.353,66.118L128.353,55.294C130.706,57.882 133.294,59.059 136.824,59.059C143.177,59.059 149.529,54.118 149.529,44.706C149.529,35.294 143.177,30.588 136.824,30.588C133.294,30.588 130.706,31.765 128.353,34.588ZM135.412,52.941C131.177,52.941 128.118,49.412 128.118,44.706C128.118,40 131.177,36.706 135.412,36.706C139.647,36.706 142.471,40 142.471,44.706C142.471,49.412 139.647,52.941 135.412,52.941ZM151.412,44.941C151.412,52.941 157.765,59.059 166,59.059C174.235,59.059 180.588,52.706 180.588,44.706C180.588,36.706 174.471,30.588 166.235,30.588C158,30.588 151.412,36.941 151.412,44.941ZM158.471,44.706C158.471,40 161.529,36.706 166,36.706C170.471,36.706 173.765,40.235 173.765,44.941C173.765,49.647 170.706,52.941 166.235,52.941C161.765,52.941 158.471,49.412 158.471,44.706ZM191.412,31.059L191.412,24.235C191.412,24 191.412,23.765 191.177,23.765L185.059,23.765C184.824,23.765 184.588,24 184.588,24.235L184.588,31.059L181.529,31.059C181.294,31.059 181.059,31.294 181.059,31.529L181.059,36.706C181.059,36.941 181.294,37.176 181.529,37.176L184.588,37.176L184.588,50.824C184.588,56.235 187.177,59.059 192.588,59.059C194.706,59.059 196.824,58.588 198.471,57.647C198.706,57.647 198.706,57.412 198.706,57.176L198.706,52.235C198.706,52 198.706,51.765 198.471,51.765L198,51.765C196.824,52.471 195.412,52.706 194.235,52.706C192.353,52.706 191.412,51.765 191.412,49.882L191.412,37.176L198.471,37.176C198.706,37.176 198.941,36.941 198.941,36.706L198.941,31.529C198.941,31.294 198.706,31.059 198.471,31.059L191.412,31.059ZM221.764,30.353C221.764,27.765 222.706,26.824 224.824,26.824C226,26.824 227.176,26.824 228.352,27.294L228.588,27.294C228.588,27.294 228.824,27.059 228.824,26.824L228.824,21.882C228.824,21.647 228.824,21.412 228.588,21.412C227.412,20.941 225.764,20.706 223.412,20.706C217.764,20.706 214.94,24 214.94,29.882L214.94,31.059L211.882,31.059C211.646,31.059 211.412,31.294 211.412,31.529L211.412,36.706C211.412,36.941 211.646,37.176 211.882,37.176L214.94,37.176L214.94,58.118C214.94,58.353 215.176,58.588 215.412,58.588L221.53,58.588C221.764,58.588 221.764,58.353 221.764,58.118L221.764,37.176L227.646,37.176L236.352,58.118C235.412,60.235 234.47,60.706 233.058,60.706C231.882,60.706 230.706,60.471 229.53,59.765L229.294,59.765L229.058,60L226.94,64.471C226.94,64.706 226.94,65.176 227.176,65.176C229.294,66.353 231.176,66.824 233.53,66.824C238,66.824 240.588,64.706 242.706,59.059L253.294,31.765L253.294,31.294C253.294,31.059 253.058,31.059 252.824,31.059L246.47,31.059C246.234,31.059 246.234,31.294 246.234,31.529L239.646,49.882L232.588,31.529C232.588,31.294 232.352,31.059 232.118,31.059L221.764,31.059L221.764,30.353ZM202.234,31.059C202,31.059 201.764,31.294 201.764,31.529L201.764,58.118C201.764,58.353 202,58.588 202.234,58.588L208.352,58.588C208.588,58.588 208.588,58.353 208.588,58.118L208.588,31.529C208.588,31.294 208.588,31.059 208.352,31.059L202.234,31.059ZM200.824,23.294C200.824,25.647 202.94,27.765 205.294,27.765C207.646,27.765 209.53,25.647 209.53,23.294C209.53,20.941 207.646,19.059 205.294,19.059C202.94,19.059 200.824,20.941 200.824,23.294ZM258.47,39.529C260.824,39.529 262.94,37.647 262.94,35.294C262.94,32.941 260.824,31.059 258.47,31.059C256.118,31.059 254.234,32.941 254.234,35.294C254.234,37.647 256.118,39.529 258.47,39.529ZM258.47,31.529C260.588,31.529 262.47,33.176 262.47,35.294C262.47,37.412 260.588,39.059 258.47,39.059C256.352,39.059 254.706,37.412 254.706,35.294C254.706,33.176 256.352,31.529 258.47,31.529ZM259.412,35.765C260.118,35.529 260.588,35.059 260.588,34.353C260.588,33.412 259.646,32.941 258.706,32.941L256.824,32.941L256.824,37.412L257.764,37.412L257.764,36L258.706,36L259.646,37.412L260.824,37.412L259.412,35.765ZM258.706,33.647C259.176,33.647 259.646,33.882 259.646,34.353C259.646,34.824 259.176,35.059 258.706,35.059L257.764,35.059L257.764,33.647L258.706,33.647Z" fill="#FFFFFF"/>
</svg>
