<svg width="40" height="32" viewBox="0 0 40 32" fill="none" xmlns="http://www.w3.org/2000/svg" xmlns:xlink="http://www.w3.org/1999/xlink">
<path d="M18.629,0.956C19.035,1.121 19.382,1.4 19.626,1.758C19.87,2.115 20,2.536 20,2.966L20,29.061C20,29.491 19.87,29.911 19.625,30.268C19.381,30.626 19.034,30.905 18.628,31.069C18.222,31.234 17.775,31.277 17.344,31.193C16.913,31.109 16.517,30.902 16.207,30.598L7.969,22.537L2.222,22.537C1.633,22.537 1.068,22.308 0.651,21.9C0.234,21.492 0,20.939 0,20.362L0,11.664C0,11.087 0.234,10.534 0.651,10.126C1.068,9.718 1.633,9.489 2.222,9.489L7.969,9.489L16.207,1.428C16.517,1.124 16.913,0.917 17.345,0.833C17.776,0.749 18.223,0.792 18.629,0.956L18.629,0.956ZM30.349,0.637C30.766,0.229 31.331,0 31.92,0C32.509,0 33.074,0.229 33.491,0.637C35.557,2.654 37.196,5.051 38.313,7.69C39.43,10.328 40.003,13.157 40,16.013C40.003,18.869 39.43,21.698 38.313,24.337C37.196,26.975 35.557,29.372 33.491,31.39C33.072,31.786 32.511,32.005 31.928,32C31.345,31.995 30.788,31.766 30.376,31.363C29.964,30.96 29.73,30.414 29.725,29.844C29.72,29.274 29.944,28.725 30.349,28.315C32.003,26.701 33.314,24.784 34.207,22.673C35.101,20.561 35.559,18.298 35.556,16.013C35.556,11.207 33.569,6.862 30.349,3.712C29.932,3.304 29.698,2.751 29.698,2.174C29.698,1.597 29.932,1.044 30.349,0.637L30.349,0.637ZM24.062,6.786C24.269,6.584 24.514,6.424 24.783,6.314C25.053,6.205 25.342,6.149 25.634,6.149C25.926,6.149 26.216,6.205 26.485,6.314C26.755,6.424 27,6.584 27.207,6.786C28.446,7.997 29.43,9.435 30.1,11.019C30.77,12.602 31.113,14.299 31.111,16.013C31.113,17.727 30.769,19.424 30.099,21.008C29.429,22.591 28.446,24.029 27.207,25.24C26.79,25.648 26.224,25.877 25.634,25.877C25.045,25.877 24.479,25.648 24.062,25.24C23.645,24.832 23.411,24.278 23.411,23.701C23.411,23.124 23.645,22.571 24.062,22.163C24.889,21.356 25.545,20.398 25.992,19.343C26.439,18.287 26.668,17.156 26.667,16.013C26.668,14.871 26.439,13.739 25.992,12.684C25.545,11.628 24.889,10.67 24.062,9.863C23.856,9.661 23.692,9.422 23.58,9.158C23.468,8.894 23.41,8.611 23.41,8.325C23.41,8.039 23.468,7.756 23.58,7.492C23.692,7.228 23.856,6.988 24.062,6.786L24.062,6.786Z" clip-rule="evenodd" fill-rule="evenodd" fill="#FFFFFF"/>
</svg>
