<svg width="96" height="98" viewBox="0 0 96 98" fill="none" xmlns="http://www.w3.org/2000/svg" xmlns:xlink="http://www.w3.org/1999/xlink">
<path d="M48,96.241C60.73,96.241 72.939,91.184 81.941,82.182C90.943,73.18 96,60.971 96,48.241C96,35.511 90.943,23.302 81.941,14.3C72.939,5.298 60.73,0.241 48,0.241C35.27,0.241 23.061,5.298 14.059,14.3C5.057,23.302 0,35.511 0,48.241C0,60.971 5.057,73.18 14.059,82.182C23.061,91.184 35.27,96.241 48,96.241L48,96.241ZM45.33,31.249C44.426,30.646 43.376,30.3 42.291,30.247C41.206,30.194 40.127,30.437 39.169,30.95C38.212,31.462 37.411,32.225 36.853,33.157C36.295,34.089 36,35.155 36,36.241L36,60.241C36,61.327 36.295,62.393 36.853,63.325C37.411,64.257 38.212,65.02 39.169,65.532C40.127,66.045 41.206,66.288 42.291,66.235C43.376,66.182 44.426,65.836 45.33,65.233L63.33,53.233C64.152,52.685 64.826,51.943 65.292,51.072C65.758,50.201 66.001,49.229 66.001,48.241C66.001,47.253 65.758,46.281 65.292,45.41C64.826,44.539 64.152,43.797 63.33,43.249L45.33,31.249L45.33,31.249Z" clip-rule="evenodd" fill-rule="evenodd" fill="#FFFFFF"/>
</svg>
